<?xml version="1.0" encoding="UTF-8" standalone="no"?>
<!DOCTYPE svg PUBLIC "-//W3C//DTD SVG 1.1//EN" "http://www.w3.org/Graphics/SVG/1.1/DTD/svg11.dtd">
<svg version="1.1" xmlns="http://www.w3.org/2000/svg" xmlns:xlink="http://www.w3.org/1999/xlink" preserveAspectRatio="xMidYMid meet" viewBox="0 0 512 512" width="512" height="512"><defs><path d="M512 256C512 397.29 397.29 512 256 512C114.71 512 0 397.29 0 256C0 114.71 114.71 0 256 0C397.29 0 512 114.71 512 256Z" id="ccILyyLTg"></path><path d="M506 256C506 393.98 393.98 506 256 506C118.02 506 6 393.98 6 256C6 118.02 118.02 6 256 6C393.98 6 506 118.02 506 256Z" id="a1LUYTtjD"></path><linearGradient id="gradienta3WpqFE3TQ" gradientUnits="userSpaceOnUse" x1="256" y1="6" x2="256" y2="506"><stop style="stop-color: #174986;stop-opacity: 1" offset="0%"></stop><stop style="stop-color: #00d4ff;stop-opacity: 1" offset="100%"></stop></linearGradient><path d="M436.04 299.79C438.69 318.91 434.9 328.4 424.69 328.28C398.29 327.94 88.46 328.69 81.62 328.28C74.78 327.86 75.96 323.35 75.96 314.87C75.95 309.22 75.95 304.56 75.96 300.89L436.04 299.79Z" id="acX4VWs51"></path><linearGradient id="gradientbeamfUwm5" gradientUnits="userSpaceOnUse" x1="256.37" y1="299.79" x2="256.37" y2="305.55"><stop style="stop-color: #f051ca;stop-opacity: 1" offset="0%"></stop><stop style="stop-color: #71380b;stop-opacity: 1" offset="100%"></stop></linearGradient><path d="M398.49 185.62C416.25 238.94 427.65 273.1 432.71 288.1C434.45 293.24 433.73 290.7 434.67 294C435.6 297.29 440.21 309.62 424.89 309.43C398.49 309.08 88.66 309.85 81.82 309.43C74.98 309 75.87 300.09 76.16 299.9C76.34 299.77 90.93 261.68 119.92 185.62L398.49 185.62Z" id="b2a4Usl66g"></path><linearGradient id="gradienta11W8Su0Ur" gradientUnits="userSpaceOnUse" x1="256" y1="180.95" x2="256" y2="210.57"><stop style="stop-color: #2966b0;stop-opacity: 1" offset="0%"></stop><stop style="stop-color: #71380b;stop-opacity: 1" offset="100%"></stop></linearGradient></defs><g><g><g><use xlink:href="#ccILyyLTg" opacity="1" fill="#e6e6e6" fill-opacity="1"></use></g><g><use xlink:href="#a1LUYTtjD" opacity="1" fill="url(#gradienta3WpqFE3TQ)"></use></g><g><use xlink:href="#acX4VWs51" opacity="1" fill="url(#gradientbeamfUwm5)"></use><g><use xlink:href="#acX4VWs51" opacity="1" fill-opacity="0" stroke="#000000" stroke-width="0" stroke-opacity="1"></use></g><g><filter id="shadow16480129" x="55.88" y="279.79" width="401.98" height="76.62" filterUnits="userSpaceOnUse" primitiveUnits="userSpaceOnUse"><feFlood></feFlood><feComposite in2="SourceAlpha" operator="out"></feComposite><feGaussianBlur stdDeviation="1.41"></feGaussianBlur><feOffset dx="1" dy="8" result="afterOffset"></feOffset><feFlood flood-color="#542b00" flood-opacity="0.8"></feFlood><feComposite in2="afterOffset" operator="in"></feComposite><feMorphology operator="dilate" radius="3"></feMorphology><feComposite in2="SourceAlpha" operator="in"></feComposite></filter><path d="M436.04 299.79C438.69 318.91 434.9 328.4 424.69 328.28C398.29 327.94 88.46 328.69 81.62 328.28C74.78 327.86 75.96 323.35 75.96 314.87C75.95 309.22 75.95 304.56 75.96 300.89L436.04 299.79Z" id="a1hyGmoQp2" fill="white" fill-opacity="1" filter="url(#shadow16480129)"></path></g></g><g><use xlink:href="#b2a4Usl66g" opacity="1" fill="url(#gradienta11W8Su0Ur)"></use><g><use xlink:href="#b2a4Usl66g" opacity="1" fill-opacity="0" stroke="#000000" stroke-width="0" stroke-opacity="1"></use></g></g></g></g></svg>